<?xml version="1.0" standalone="no"?>
<!DOCTYPE svg PUBLIC "-//W3C//DTD SVG 20010904//EN"
 "http://www.w3.org/TR/2001/REC-SVG-20010904/DTD/svg10.dtd">
<svg version="1.0" xmlns="http://www.w3.org/2000/svg"
 width="857.000000pt" height="161.000000pt" viewBox="0 0 857.000000 161.000000"
 preserveAspectRatio="xMidYMid meet">

<g transform="translate(0.000000,161.000000) scale(0.100000,-0.100000)"
fill="#000000" stroke="none">
<path d="M0 1155 c0 -286 4 -455 10 -455 5 0 129 16 276 35 146 19 270 35 275
35 5 0 9 179 9 420 l0 420 -285 0 -285 0 0 -455z"/>
<path d="M920 1212 l0 -398 273 29 c149 15 278 30 285 32 9 3 12 86 12 370 l0
365 -285 0 -285 0 0 -398z"/>
<path d="M1967 1603 c-4 -3 -7 -159 -7 -346 l0 -339 53 6 c28 3 138 13 242 21
105 8 209 18 233 21 l42 5 0 90 0 89 290 0 290 0 0 230 0 230 -568 0 c-313 0
-572 -3 -575 -7z"/>
<path d="M3557 1603 c-4 -3 -7 -132 -7 -286 l0 -280 68 6 c37 3 229 13 427 23
198 10 361 18 363 19 1 1 -47 118 -107 261 l-110 259 -314 3 c-172 1 -316 -1
-320 -5z"/>
<path d="M4520 1349 l0 -261 158 6 c86 4 199 9 250 12 l92 6 0 249 0 249 -250
0 -250 0 0 -261z"/>
<path d="M5505 1598 c-3 -7 -4 -117 -3 -243 l3 -230 228 4 227 4 0 -40 0 -40
-177 -13 c-98 -7 -200 -16 -228 -19 l-50 -6 0 -505 0 -505 283 -3 282 -2 0
256 c0 235 1 255 17 252 11 -2 56 -86 134 -253 l116 -250 297 -3 c163 -1 296
0 296 2 0 2 -70 147 -155 322 -140 287 -154 319 -138 328 10 5 41 31 69 58 93
87 134 197 134 353 -1 277 -132 447 -403 517 -76 20 -113 21 -504 25 -350 4
-424 2 -428 -9z m553 -353 c18 -23 28 -26 105 -29 95 -4 182 -29 197 -56 19
-35 12 -77 -16 -99 -36 -28 -119 -58 -186 -66 -51 -6 -59 -11 -77 -41 -16 -26
-27 -34 -48 -34 -27 0 -72 20 -46 20 7 0 19 10 28 23 13 21 13 27 -5 62 -23
45 -26 103 -8 153 12 32 11 35 -16 57 -30 24 -24 33 26 34 17 1 34 -8 46 -24z"/>
<path d="M7040 1600 c0 -5 107 -209 238 -452 l237 -443 5 -350 5 -350 285 0
285 0 5 350 5 350 228 444 c125 244 227 447 227 452 0 5 -121 9 -269 9 l-269
0 -16 -42 c-9 -24 -52 -149 -95 -278 l-78 -235 -92 278 -93 277 -304 0 c-188
0 -304 -4 -304 -10z"/>
<path d="M4795 954 c-121 -12 -232 -23 -247 -23 -26 -1 -28 -4 -29 -48 l0 -48
-19 43 c-13 27 -26 42 -38 42 -26 0 -719 -78 -822 -93 l-85 -12 0 -405 0 -405
252 -3 253 -2 2 432 3 432 209 -432 210 -432 268 0 268 0 0 490 c0 270 -1 489
-2 489 -2 -1 -102 -12 -223 -25z"/>
<path d="M2280 638 c-135 -21 -261 -41 -280 -46 l-35 -8 0 -289 0 -290 585 0
585 0 3 228 2 227 -304 0 -305 0 -3 108 -3 108 -245 -38z"/>
<path d="M1225 459 c-110 -21 -224 -44 -252 -50 l-53 -10 0 -200 0 -199 283 2
282 3 3 248 2 247 -32 -1 c-18 -1 -123 -19 -233 -40z"/>
<path d="M515 313 c-11 -2 -131 -32 -268 -65 l-247 -60 0 -94 0 -94 285 0 285
0 0 160 c0 174 3 166 -55 153z"/>
</g>
</svg>
